<svg width="21" height="20" viewBox="0 0 21 20" fill="none" xmlns="http://www.w3.org/2000/svg">
<path fill-rule="evenodd" clip-rule="evenodd" d="M10.5 0.25C5.11522 0.25 0.75 4.61522 0.75 10C0.75 15.3848 5.11522 19.75 10.5 19.75C15.8848 19.75 20.25 15.3848 20.25 10C20.2443 4.61758 15.8824 0.255684 10.5 0.25ZM11.25 18.2153V12.25H13.5C13.9142 12.25 14.25 11.9142 14.25 11.5C14.25 11.0858 13.9142 10.75 13.5 10.75H11.25V8.5C11.25 7.67157 11.9216 7 12.75 7H14.25C14.6642 7 15 6.66421 15 6.25C15 5.83579 14.6642 5.5 14.25 5.5H12.75C11.0931 5.5 9.75 6.84315 9.75 8.5V10.75H7.5C7.08579 10.75 6.75 11.0858 6.75 11.5C6.75 11.9142 7.08579 12.25 7.5 12.25H9.75V18.2153C5.35788 17.8144 2.05787 14.0299 2.25854 9.62409C2.45922 5.21827 6.08962 1.74947 10.5 1.74947C14.9104 1.74947 18.5408 5.21827 18.7415 9.62409C18.9421 14.0299 15.6421 17.8144 11.25 18.2153Z" fill="#9CABBA"/>
</svg>
