<svg width="21" height="21" viewBox="0 0 21 21" fill="none" xmlns="http://www.w3.org/2000/svg">
<path fill-rule="evenodd" clip-rule="evenodd" d="M20.0291 5.095C20.4925 3.59994 20.3096 1.97919 19.5247 0.625C19.3907 0.392897 19.143 0.24994 18.875 0.25C17.1036 0.246292 15.4349 1.08067 14.375 2.5H12.125C11.0651 1.08067 9.39638 0.246292 7.625 0.25C7.35699 0.24994 7.10932 0.392897 6.97531 0.625C6.19035 1.97919 6.00747 3.59994 6.47094 5.095C6.00756 5.9038 5.75934 6.81791 5.75 7.75V8.5C5.75326 11.1241 7.69154 13.3436 10.2913 13.7003C9.77807 14.357 9.49952 15.1666 9.5 16V16.75H7.25C6.00736 16.75 5 15.7426 5 14.5C5 12.4289 3.32107 10.75 1.25 10.75C0.835786 10.75 0.5 11.0858 0.5 11.5C0.5 11.9142 0.835786 12.25 1.25 12.25C2.49264 12.25 3.5 13.2574 3.5 14.5C3.5 16.5711 5.17893 18.25 7.25 18.25H9.5V19.75C9.5 20.1642 9.83579 20.5 10.25 20.5C10.6642 20.5 11 20.1642 11 19.75V16C11 14.7574 12.0074 13.75 13.25 13.75C14.4926 13.75 15.5 14.7574 15.5 16V19.75C15.5 20.1642 15.8358 20.5 16.25 20.5C16.6642 20.5 17 20.1642 17 19.75V16C17.0005 15.1666 16.7219 14.357 16.2087 13.7003C18.8085 13.3436 20.7467 11.1241 20.75 8.5V7.75C20.7407 6.81791 20.4924 5.9038 20.0291 5.095ZM19.25 8.5C19.25 10.5711 17.5711 12.25 15.5 12.25H11C8.92893 12.25 7.25 10.5711 7.25 8.5V7.75C7.2592 7.00002 7.48373 6.26849 7.89687 5.6425C8.05345 5.43612 8.09244 5.16356 8 4.92156C7.60545 3.90402 7.6321 2.7713 8.07406 1.77344C9.3174 1.90719 10.4324 2.59924 11.1041 3.65406C11.2414 3.86876 11.4783 3.99905 11.7331 4H14.7659C15.0218 4.00001 15.26 3.8696 15.3978 3.65406C16.0694 2.59913 17.1844 1.90706 18.4278 1.77344C18.8692 2.77155 18.8951 3.90427 18.5 4.92156C18.4079 5.16109 18.4432 5.43094 18.5938 5.63875C19.011 6.26474 19.2388 6.99778 19.25 7.75V8.5Z" fill="#9CABBA"/>
</svg>
