<svg width="21" height="20" viewBox="0 0 21 20" fill="none" xmlns="http://www.w3.org/2000/svg">
<path fill-rule="evenodd" clip-rule="evenodd" d="M18.75 0.25H2.25C1.42157 0.25 0.75 0.921573 0.75 1.75V18.25C0.75 19.0784 1.42157 19.75 2.25 19.75H18.75C19.5784 19.75 20.25 19.0784 20.25 18.25V1.75C20.25 0.921573 19.5784 0.25 18.75 0.25ZM18.75 18.25H2.25V1.75H18.75V18.25ZM7.5 8.5V14.5C7.5 14.9142 7.16421 15.25 6.75 15.25C6.33579 15.25 6 14.9142 6 14.5V8.5C6 8.08579 6.33579 7.75 6.75 7.75C7.16421 7.75 7.5 8.08579 7.5 8.5ZM15.75 11.125V14.5C15.75 14.9142 15.4142 15.25 15 15.25C14.5858 15.25 14.25 14.9142 14.25 14.5V11.125C14.25 10.0895 13.4105 9.25 12.375 9.25C11.3395 9.25 10.5 10.0895 10.5 11.125V14.5C10.5 14.9142 10.1642 15.25 9.75 15.25C9.33579 15.25 9 14.9142 9 14.5V8.5C9.00193 8.11975 9.28811 7.80112 9.66598 7.75852C10.0438 7.71592 10.3938 7.96285 10.4803 8.33313C11.5142 7.63174 12.851 7.55891 13.955 8.14381C15.059 8.7287 15.7496 9.87563 15.75 11.125ZM7.875 5.875C7.875 6.49632 7.37132 7 6.75 7C6.12868 7 5.625 6.49632 5.625 5.875C5.625 5.25368 6.12868 4.75 6.75 4.75C7.37132 4.75 7.875 5.25368 7.875 5.875Z" fill="#9CABBA"/>
</svg>
