<svg width="21" height="20" viewBox="0 0 21 20" fill="none" xmlns="http://www.w3.org/2000/svg">
<path fill-rule="evenodd" clip-rule="evenodd" d="M10.5 5.5C8.01472 5.5 6 7.51472 6 10C6 12.4853 8.01472 14.5 10.5 14.5C12.9853 14.5 15 12.4853 15 10C14.9974 7.51579 12.9842 5.50258 10.5 5.5ZM10.5 13C8.84315 13 7.5 11.6569 7.5 10C7.5 8.34315 8.84315 7 10.5 7C12.1569 7 13.5 8.34315 13.5 10C13.5 11.6569 12.1569 13 10.5 13ZM15 0.25H6C3.10179 0.2531 0.7531 2.60179 0.75 5.5V14.5C0.7531 17.3982 3.10179 19.7469 6 19.75H15C17.8982 19.7469 20.2469 17.3982 20.25 14.5V5.5C20.2469 2.60179 17.8982 0.2531 15 0.25ZM18.75 14.5C18.75 16.5711 17.0711 18.25 15 18.25H6C3.92893 18.25 2.25 16.5711 2.25 14.5V5.5C2.25 3.42893 3.92893 1.75 6 1.75H15C17.0711 1.75 18.75 3.42893 18.75 5.5V14.5ZM16.5 5.125C16.5 5.74632 15.9963 6.25 15.375 6.25C14.7537 6.25 14.25 5.74632 14.25 5.125C14.25 4.50368 14.7537 4 15.375 4C15.9963 4 16.5 4.50368 16.5 5.125Z" fill="#9CABBA"/>
</svg>
